<?xml version="1.0" standalone="no"?>
<!DOCTYPE svg PUBLIC "-//W3C//DTD SVG 1.1//EN" "http://www.w3.org/Graphics/SVG/1.1/DTD/svg11.dtd" >
<svg xmlns="http://www.w3.org/2000/svg" xmlns:xlink="http://www.w3.org/1999/xlink" version="1.1">
<metadata>
Created by FontForge 20170731 at Mon Jun 24 23:08:22 2019
 By Aleksey,,,
(URW)++,Copyright 2017 by (URW)++ Design &#38; Development
</metadata>
<defs>
<font id="URWGeometricArabic-Heavy" horiz-adv-x="543" >
  <font-face 
    font-family="URWGeometricArabic-Heavy"
    font-weight="400"
    font-stretch="normal"
    units-per-em="1000"
    panose-1="0 0 0 0 0 0 0 0 0 0"
    ascent="800"
    descent="-200"
    bbox="-82 -250 1128 1077"
    underline-thickness="132"
    underline-position="-431"
    unicode-range="U+0020-20A7"
  />
<missing-glyph horiz-adv-x="364" 
d="M33 0v666h265v-666h-265zM66 33h199v600h-199v-600z" />
    <glyph glyph-name=".notdef" horiz-adv-x="364" 
d="M33 0v666h265v-666h-265zM66 33h199v600h-199v-600z" />
    <glyph glyph-name="glyph1" horiz-adv-x="0" 
 />
    <glyph glyph-name="glyph2" horiz-adv-x="218" 
 />
    <glyph glyph-name="space" unicode=" " horiz-adv-x="218" 
 />
    <glyph glyph-name="Amacron" unicode="&#x100;" horiz-adv-x="649" 
d="M451 147h-253l-51 -147h-156l249 667h170l249 -667h-157zM403 284l-79 225l-78 -225h157zM157 858h336v-117h-336v117z" />
    <glyph glyph-name="amacron" unicode="&#x101;" 
d="M496 0h-142v22q-54 -39 -111 -39q-100 0 -166 79q-58 68 -58 160q0 106 74 177q64 61 150 61q57 0 111 -38v21h142v-443zM260 332q-47 0 -74 -34q-24 -30 -24 -76q0 -53 30 -84q27 -27 68 -27q46 0 72 35q24 30 24 76q0 53 -30 84q-26 26 -66 26zM102 649h336v-117h-336
v117z" />
    <glyph glyph-name="Abreve" unicode="&#x102;" horiz-adv-x="649" 
d="M451 147h-253l-51 -147h-156l249 667h170l249 -667h-157zM403 284l-79 225l-78 -225h157zM160 878l122 9q3 -49 10 -59q10 -14 30 -14q23 0 32 17q7 12 13 56l123 -9q-6 -49 -8.5 -60.5t-11.5 -28.5q-22 -42 -60.5 -65.5t-86.5 -23.5q-58 0 -102 32q-38 28 -54 71
q-6 19 -7 75z" />
    <glyph glyph-name="abreve" unicode="&#x103;" 
d="M496 0h-142v22q-54 -39 -111 -39q-100 0 -166 79q-58 68 -58 160q0 106 74 177q64 61 150 61q57 0 111 -38v21h142v-443zM260 332q-47 0 -74 -34q-24 -30 -24 -76q0 -53 30 -84q27 -27 68 -27q46 0 72 35q24 30 24 76q0 53 -30 84q-26 26 -66 26zM95 669l123 9
q2 -47 9.5 -61.5t30.5 -14.5q35 0 41 47q2 15 4 29l123 -9q-6 -50 -8.5 -61t-11.5 -28q-22 -43 -60.5 -66t-87.5 -23q-58 0 -101 32q-39 27 -54 71q-6 18 -8 75z" />
    <glyph glyph-name="Aogonek" unicode="&#x104;" horiz-adv-x="649" 
d="M659 0q-29 -37 -29 -54q0 -6 8 -6q13 0 36 12l43 -101q-45 -15 -63.5 -19.5t-40.5 -4.5q-58 0 -93 33q-30 28 -30 69q0 32 26 71h-14l-51 147h-253l-51 -147h-156l249 667h170zM403 284l-79 225l-78 -225h157z" />
    <glyph glyph-name="aogonek" unicode="&#x105;" 
d="M496 0l-3 -4q-25 -33 -25 -50q0 -6 7 -6q14 0 37 12l42 -101q-45 -15 -63.5 -19.5t-39.5 -4.5q-58 0 -93 33q-31 28 -31 69q0 32 27 71v22q-54 -39 -111 -39q-100 0 -166 79q-58 68 -58 160q0 106 74 177q64 61 150 61q57 0 111 -38v21h142v-443zM260 332q-47 0 -74 -34
q-24 -30 -24 -76q0 -53 30 -84q27 -27 68 -27q46 0 72 35q24 30 24 76q0 53 -30 84q-26 26 -66 26z" />
    <glyph glyph-name="Cacute" unicode="&#x106;" horiz-adv-x="674" 
d="M548 455q-44 50 -82 70t-86 20q-92 0 -153 -69q-52 -60 -52 -143q0 -94 68 -157q58 -55 138 -55q48 0 86.5 21t83.5 71l105 -98q-70 -74 -139 -105q-61 -27 -134 -27q-97 0 -180 48q-81 46 -128 125q-49 82 -49 177t49 177q47 79 128 126q83 47 180 47q78 0 141.5 -30.5
t128.5 -99.5zM557 854l-172 -161l-96 51l137 175z" />
    <glyph glyph-name="cacute" unicode="&#x107;" horiz-adv-x="457" 
d="M423 644l-171 -160l-96 51l136 175zM448 376l-87 -96q-29 30 -50.5 41t-48.5 11q-49 0 -76 -34q-24 -29 -24 -76q0 -54 31 -85q26 -26 69 -26q29 0 52 12.5t49 43.5l88 -97q-83 -87 -189 -87q-110 0 -181 78q-62 67 -62 161q0 108 79 178q68 60 163 60q54 0 98.5 -20
t88.5 -64z" />
    <glyph glyph-name="Ccircumflex" unicode="&#x108;" horiz-adv-x="674" 
d="M548 455q-44 50 -82 70t-86 20q-92 0 -153 -69q-52 -60 -52 -143q0 -94 68 -157q58 -55 138 -55q48 0 86.5 21t83.5 71l105 -98q-70 -74 -139 -105q-61 -27 -134 -27q-97 0 -180 48q-81 46 -128 125q-49 82 -49 177t49 177q47 79 128 126q83 47 180 47q78 0 141.5 -30.5
t128.5 -99.5zM284 694l-108 50l153 155h84l152 -155l-108 -50l-86 78z" />
    <glyph glyph-name="ccircumflex" unicode="&#x109;" horiz-adv-x="457" 
d="M448 376l-87 -96q-30 30 -50.5 41t-48.5 11q-49 0 -76 -34q-24 -29 -24 -76q0 -54 31 -85q27 -26 69 -26q30 0 52 12.5t49 43.5l88 -97q-47 -47 -90.5 -67t-98.5 -20q-110 0 -181 78q-62 67 -62 161q0 108 79 178q68 60 163 60q54 0 96 -19t91 -65zM335 485l-87 82
l-86 -82l-107 50l151 155h84l152 -155z" />
    <glyph glyph-name="Cdotaccent" unicode="&#x10a;" horiz-adv-x="674" 
d="M548 455q-44 50 -82 70t-86 20q-92 0 -153 -69q-52 -60 -52 -143q0 -94 68 -157q58 -55 138 -55q48 0 86.5 21t83.5 71l105 -98q-70 -74 -139 -105q-61 -27 -134 -27q-97 0 -180 48q-81 46 -128 125q-49 82 -49 177t49 177q47 79 128 126q83 47 180 47q78 0 141.5 -30.5
t128.5 -99.5zM294 800q0 36 28 61q24 21 57 21q38 0 63 -27q22 -24 22 -55q0 -37 -28 -61q-24 -22 -57 -22q-38 0 -63 28q-22 23 -22 55z" />
    <glyph glyph-name="cdotaccent" unicode="&#x10b;" horiz-adv-x="457" 
d="M448 376l-87 -96q-29 30 -50.5 41t-48.5 11q-49 0 -76 -34q-24 -29 -24 -76q0 -54 31 -85q26 -26 69 -26q29 0 52 12.5t49 43.5l88 -97q-83 -87 -189 -87q-110 0 -181 78q-62 67 -62 161q0 108 79 178q68 60 163 60q54 0 98.5 -20t88.5 -64zM167 596q0 36 28 61
q24 21 57 21q38 0 63 -27q21 -24 21 -55q0 -37 -28 -61q-24 -21 -56 -21q-38 0 -63 27q-22 23 -22 55z" />
    <glyph glyph-name="Ccaron" unicode="&#x10c;" horiz-adv-x="674" 
d="M548 455q-44 50 -82 70t-86 20q-92 0 -153 -69q-52 -60 -52 -143q0 -94 68 -157q58 -55 138 -55q48 0 86.5 21t83.5 71l105 -98q-70 -74 -139 -105q-61 -27 -134 -27q-97 0 -180 48q-81 46 -128 125q-49 82 -49 177t49 177q47 79 128 126q83 47 180 47q78 0 141.5 -30.5
t128.5 -99.5zM284 902l87 -77l86 77l108 -50l-152 -155h-84l-153 155z" />
    <glyph glyph-name="ccaron" unicode="&#x10d;" horiz-adv-x="455" 
d="M448 376l-87 -96q-29 30 -50.5 41t-48.5 11q-49 0 -76 -34q-24 -29 -24 -76q0 -54 31 -85q26 -26 69 -26q29 0 52 12.5t49 43.5l88 -97q-83 -87 -189 -87q-110 0 -181 78q-62 67 -62 161q0 108 79 178q68 60 163 60q54 0 98.5 -20t88.5 -64zM335 702l107 -50l-152 -154
h-84l-151 154l107 50l86 -82z" />
    <glyph glyph-name="Dcaron" unicode="&#x10e;" horiz-adv-x="621" 
d="M64 667h164q179 0 279 -103q88 -89 88 -230q0 -163 -113 -254q-98 -80 -254 -80h-164v667zM212 529v-392h19q107 0 165 59q51 52 51 137q0 98 -65 151q-57 45 -151 45h-19zM205 902l87 -77l86 77l108 -50l-152 -155h-84l-153 155z" />
    <glyph glyph-name="dcaron" unicode="&#x10f;" horiz-adv-x="696" 
d="M496 0h-142v22q-54 -39 -111 -39q-100 0 -166 79q-58 68 -58 160q0 106 74 177q64 61 150 61q57 0 111 -38v245h142v-667zM260 332q-48 0 -75 -34q-23 -30 -23 -78q0 -52 31 -82q26 -27 67 -27q46 0 72 35q23 30 23 76q0 53 -29 84q-26 26 -66 26zM585 709l133 -38
l-91 -195l-106 30z" />
    <glyph glyph-name="Dcroat" unicode="&#x110;" horiz-adv-x="634" 
d="M77 424v242h164q178 0 279 -102q88 -89 88 -230q0 -163 -113 -255q-99 -79 -254 -79h-164v289h-61v135h61zM224 424h143v-135h-143v-152h20q107 0 165 59q50 52 50 136q0 99 -65 151q-56 46 -150 46h-20v-105z" />
    <glyph glyph-name="dcroat" unicode="&#x111;" horiz-adv-x="547" 
d="M354 492h-107v122h107v53h142v-53h54v-122h-54v-492h-142v22q-54 -39 -111 -39q-100 0 -166 79q-58 68 -58 160q0 106 74 177q64 61 150 61q57 0 111 -38v70zM260 332q-48 0 -75 -34q-23 -30 -23 -78q0 -52 31 -82q26 -27 67 -27q46 0 72 35q23 30 23 76q0 53 -29 84
q-26 26 -66 26z" />
    <glyph glyph-name="Emacron" unicode="&#x112;" horiz-adv-x="495" 
d="M456 667v-136h-245v-125h218v-137h-218v-132h254v-137h-401v667h392zM97 858h336v-117h-336v117z" />
    <glyph glyph-name="emacron" unicode="&#x113;" horiz-adv-x="494" 
d="M463 103q-77 -120 -209 -120q-107 0 -176 78q-59 67 -59 161q0 107 75 177q65 61 155 61q105 0 170 -79q56 -69 56 -169q0 -13 -1 -37h-309q24 -68 87 -68q55 0 84 46zM334 269q-12 36 -31.5 52t-52.5 16q-66 0 -85 -68h169zM79 649h336v-117h-336v117z" />
    <glyph glyph-name="Ebreve" unicode="&#x114;" horiz-adv-x="495" 
d="M456 667v-136h-245v-125h218v-137h-218v-132h254v-137h-401v667h392zM99 878l123 9q2 -49 10 -59q10 -14 30 -14q23 0 32 17q7 12 13 56l123 -9q-6 -49 -8.5 -60.5t-11.5 -28.5q-22 -42 -60.5 -65.5t-87.5 -23.5q-58 0 -102 32q-38 28 -53 71q-6 19 -8 75z" />
    <glyph glyph-name="ebreve" unicode="&#x115;" horiz-adv-x="494" 
d="M463 103q-77 -120 -209 -120q-107 0 -176 78q-59 67 -59 161q0 107 75 177q65 61 155 61q105 0 170 -79q56 -69 56 -169q0 -13 -1 -37h-309q24 -68 87 -68q55 0 84 46zM334 269q-12 36 -31.5 52t-52.5 16q-66 0 -85 -68h169zM82 669l123 9q1 -47 8.5 -61.5t30.5 -14.5
q35 0 41 47q2 16 4 29l123 -9q-6 -50 -8.5 -61t-11.5 -28q-21 -43 -60 -66t-87 -23q-58 0 -102 32q-38 27 -53 71q-7 18 -8 75z" />
    <glyph glyph-name="Edotaccent" unicode="&#x116;" horiz-adv-x="495" 
d="M456 667v-136h-245v-125h218v-137h-218v-132h254v-137h-401v667h392zM180 800q0 36 28 61q24 21 56 21q38 0 63 -27q22 -24 22 -55q0 -37 -28 -61q-24 -22 -57 -22q-37 0 -62 28q-22 23 -22 55z" />
    <glyph glyph-name="edotaccent" unicode="&#x117;" horiz-adv-x="494" 
d="M463 103q-77 -120 -209 -120q-107 0 -176 78q-59 67 -59 161q0 107 75 177q65 61 155 61q105 0 170 -79q56 -69 56 -169q0 -13 -1 -37h-309q24 -68 87 -68q55 0 84 46zM334 269q-12 36 -31.5 52t-52.5 16q-66 0 -85 -68h169zM162 596q0 36 27 61q25 21 57 21q38 0 63 -27
q22 -24 22 -55q0 -37 -28 -61q-24 -21 -57 -21q-37 0 -63 27q-21 23 -21 55z" />
    <glyph glyph-name="Eogonek" unicode="&#x118;" horiz-adv-x="495" 
d="M465 0q-28 -37 -28 -54q0 -6 7 -6q14 0 36 12l43 -101q-45 -15 -63.5 -19.5t-39.5 -4.5q-58 0 -93 33q-31 28 -31 69q0 32 27 71h-259v667h392v-136h-245v-125h218v-137h-218v-132h254v-137z" />
    <glyph glyph-name="eogonek" unicode="&#x119;" horiz-adv-x="494" 
d="M316 -8q-22 -31 -22 -46q0 -6 8 -6q13 0 36 12l43 -101q-46 -15 -64 -19.5t-40 -4.5q-57 0 -93 32q-30 29 -30 70q0 31 23 66q-76 26 -120 94q-38 60 -38 133q0 107 75 177q65 61 155 61q105 0 170 -79q56 -69 56 -169q0 -13 -1 -37h-309q24 -68 87 -68q55 0 84 46
l127 -50q-58 -91 -147 -111zM334 269q-12 36 -31.5 52t-52.5 16q-66 0 -85 -68h169z" />
    <glyph glyph-name="Ecaron" unicode="&#x11a;" horiz-adv-x="495" 
d="M456 667v-136h-245v-125h218v-137h-218v-132h254v-137h-401v667h392zM178 902l87 -77l86 77l108 -50l-152 -155h-84l-153 155z" />
    <glyph glyph-name="ecaron" unicode="&#x11b;" horiz-adv-x="494" 
d="M463 103q-77 -120 -209 -120q-107 0 -176 78q-59 67 -59 161q0 107 75 177q65 61 155 61q105 0 170 -79q56 -69 56 -169q0 -13 -1 -37h-309q24 -68 87 -68q55 0 84 46zM334 269q-12 36 -31.5 52t-52.5 16q-66 0 -85 -68h169zM333 702l107 -50l-151 -154h-84l-152 154
l107 50l87 -82z" />
    <glyph glyph-name="Gcircumflex" unicode="&#x11c;" horiz-adv-x="729" 
d="M369 380h332v-70q0 -106 -43 -180t-121 -113q-68 -34 -151 -34q-98 0 -182 48q-82 46 -129 125q-49 81 -49 177t49 177q47 80 128 126q84 47 182 47q77 0 140 -28.5t134 -94.5l-106 -99q-47 47 -84 65.5t-85 18.5q-95 0 -156 -68q-53 -60 -53 -144q0 -96 68 -158
q60 -54 142 -54q67 0 110 36q37 32 52 88h-178v135zM283 694l-108 50l153 155h84l152 -155l-108 -50l-86 78z" />
    <glyph glyph-name="gcircumflex" unicode="&#x11d;" 
d="M354 22q-31 -22 -55.5 -30.5t-55.5 -8.5q-100 0 -166 79q-58 68 -58 160q0 106 74 177q64 61 150 61q31 0 55.5 -8.5t55.5 -29.5v21h142v-452q0 -115 -77 -182q-66 -59 -167 -59q-68 0 -121.5 28.5t-107.5 92.5l96 91q6 -6 14 -17q54 -67 119 -67q52 0 79 33q23 30 23 80
v31zM260 332q-47 0 -74 -34q-24 -30 -24 -76q0 -53 30 -84q27 -27 67 -27q47 0 73 35q23 29 23 76q0 53 -29 84q-26 26 -66 26zM344 485l-86 82l-87 -82l-107 50l152 155h84l151 -155z" />
    <glyph glyph-name="Gbreve" unicode="&#x11e;" horiz-adv-x="729" 
d="M369 380h332v-70q0 -106 -43 -180t-121 -113q-68 -34 -151 -34q-98 0 -182 48q-82 46 -129 125q-49 81 -49 177t49 177q47 80 128 126q84 47 182 47q77 0 140 -28.5t134 -94.5l-106 -99q-47 47 -84 65.5t-85 18.5q-95 0 -156 -68q-53 -60 -53 -144q0 -96 68 -158
q60 -54 142 -54q67 0 110 36q37 32 52 88h-178v135zM224 878l123 9q2 -50 10 -59q10 -14 30 -14q23 0 32 17q6 12 13 56l122 -9q-6 -49 -8 -60t-11 -29q-22 -42 -60.5 -65.5t-87.5 -23.5q-58 0 -102 32q-38 28 -53 71q-6 18 -8 75z" />
    <glyph glyph-name="gbreve" unicode="&#x11f;" 
d="M354 22q-31 -22 -55.5 -30.5t-55.5 -8.5q-100 0 -166 79q-58 68 -58 160q0 106 74 177q64 61 150 61q31 0 55.5 -8.5t55.5 -29.5v21h142v-452q0 -115 -77 -182q-66 -59 -167 -59q-68 0 -121.5 28.5t-107.5 92.5l96 91q6 -6 14 -17q54 -67 119 -67q52 0 79 33q23 30 23 80
v31zM260 332q-47 0 -74 -34q-24 -30 -24 -76q0 -53 30 -84q27 -27 67 -27q47 0 73 35q23 29 23 76q0 53 -29 84q-26 26 -66 26zM96 669l122 9q2 -47 9.5 -61.5t30.5 -14.5q35 0 41 47q2 15 4 29l123 -9q-6 -50 -8.5 -61t-11.5 -28q-22 -43 -60.5 -66t-87.5 -23
q-57 0 -101 32q-39 27 -54 71q-6 18 -7 75z" />
    <glyph glyph-name="Gdotaccent" unicode="&#x120;" horiz-adv-x="729" 
d="M369 380h332v-70q0 -106 -43 -180t-121 -113q-68 -34 -151 -34q-98 0 -182 48q-82 46 -129 125q-49 81 -49 177t49 177q47 80 128 126q84 47 182 47q77 0 140 -28.5t134 -94.5l-106 -99q-47 47 -84 65.5t-85 18.5q-95 0 -156 -68q-53 -60 -53 -144q0 -96 68 -158
q60 -54 142 -54q67 0 110 36q37 32 52 88h-178v135zM302 800q0 36 28 61q24 21 57 21q37 0 62 -27q22 -24 22 -55q0 -37 -28 -61q-24 -22 -57 -22q-37 0 -62 28q-22 23 -22 55z" />
    <glyph glyph-name="gdotaccent" unicode="&#x121;" 
d="M354 22q-31 -22 -55.5 -30.5t-55.5 -8.5q-100 0 -166 79q-58 68 -58 160q0 106 74 177q64 61 150 61q31 0 55.5 -8.5t55.5 -29.5v21h142v-452q0 -115 -77 -182q-66 -59 -167 -59q-68 0 -121.5 28.5t-107.5 92.5l96 91q6 -6 14 -17q54 -67 119 -67q52 0 79 33q23 30 23 80
v31zM260 332q-47 0 -74 -34q-24 -30 -24 -76q0 -53 30 -84q27 -27 67 -27q47 0 73 35q23 29 23 76q0 53 -29 84q-26 26 -66 26zM173 596q0 36 28 61q24 21 57 21q37 0 63 -27q21 -24 21 -55q0 -37 -28 -61q-24 -21 -56 -21q-38 0 -63 27q-22 23 -22 55z" />
    <glyph glyph-name="Gcommaaccent" unicode="&#x122;" horiz-adv-x="729" 
d="M369 380h332v-70q0 -106 -43 -180t-121 -113q-68 -34 -151 -34q-98 0 -182 48q-82 46 -129 125q-49 81 -49 177t49 177q47 80 128 126q84 47 182 47q77 0 140 -28.5t134 -94.5l-106 -99q-47 47 -84 65.5t-85 18.5q-95 0 -156 -68q-53 -60 -53 -144q0 -96 68 -158
q60 -54 142 -54q67 0 110 36q37 32 52 88h-178v135zM330 -16l132 -38l-90 -195l-107 30z" />
    <glyph glyph-name="gcommaaccent" unicode="&#x123;" 
d="M354 22q-31 -22 -55.5 -30.5t-55.5 -8.5q-100 0 -166 79q-58 68 -58 160q0 106 74 177q64 61 150 61q31 0 55.5 -8.5t55.5 -29.5v21h142v-452q0 -115 -77 -182q-66 -59 -167 -59q-68 0 -121.5 28.5t-107.5 92.5l96 91q6 -6 14 -17q54 -67 119 -67q52 0 79 33q23 30 23 80
v31zM260 332q-47 0 -74 -34q-24 -30 -24 -76q0 -53 30 -84q27 -27 67 -27q47 0 73 35q23 29 23 76q0 53 -29 84q-26 26 -66 26zM317 475l-132 37l90 196l107 -31z" />
    <glyph glyph-name="Hcircumflex" unicode="&#x124;" horiz-adv-x="654" 
d="M212 667v-261h229v261h148v-667h-148v269h-229v-269h-148v667h148zM240 694l-108 50l153 155h84l152 -155l-108 -50l-86 78z" />
    <glyph glyph-name="hcircumflex" unicode="&#x125;" horiz-adv-x="511" 
d="M189 426q44 34 98 34q45 0 85 -23t63 -62q28 -49 28 -135v-240h-142v233q0 57 -13 78t-48 21q-43 0 -59 -28q-12 -21 -12 -80v-224h-142v667h142v-241zM170 694l-108 50l152 155h84l153 -155l-108 -50l-87 78z" />
    <glyph glyph-name="Hbar" unicode="&#x126;" horiz-adv-x="649" 
d="M439 614v53h148v-53h54v-122h-54v-492h-148v269h-230v-269h-148v492h-54v122h54v53h148v-53h230zM439 492h-230v-86h230v86z" />
    <glyph glyph-name="hbar" unicode="&#x127;" horiz-adv-x="504" 
d="M41 492h-54v122h54v53h142v-53h108v-122h-108v-66q44 34 98 34q45 0 85 -23t63 -62q28 -49 28 -135v-240h-142v233q0 57 -13 78t-48 21q-43 0 -59 -28q-12 -21 -12 -80v-224h-142v492z" />
    <glyph glyph-name="Itilde" unicode="&#x128;" horiz-adv-x="276" 
d="M212 667v-667h-147v667h147zM190 881l118 -25q-4 -57 -21 -84q-13 -21 -37 -33.5t-53 -12.5q-40 0 -81 20q-12 6 -19 6q-4 0 -6.5 -6t-6.5 -28l-115 25q5 55 24 84q13 21 36.5 33.5t48.5 12.5q41 0 85 -23q10 -6 16 -6q5 0 7 6.5t4 30.5z" />
    <glyph glyph-name="itilde" unicode="&#x129;" horiz-adv-x="238" 
d="M190 443v-443h-143v443h143zM170 673l118 -26q-4 -56 -21 -84q-12 -21 -36.5 -33.5t-53.5 -12.5q-40 0 -81 21q-12 5 -19 5q-5 0 -7 -6t-6 -28l-115 26q5 55 24 84q13 20 36.5 32.5t48.5 12.5q41 0 85 -23q10 -5 16 -5q5 0 7 6.5t4 30.5z" />
    <glyph glyph-name="Imacron" unicode="&#x12a;" horiz-adv-x="276" 
d="M212 667v-667h-148v667h148zM-30 858h336v-117h-336v117z" />
    <glyph glyph-name="imacron" unicode="&#x12b;" horiz-adv-x="238" 
d="M190 443v-443h-142v443h142zM-49 649h336v-117h-336v117z" />
    <glyph glyph-name="Ibreve" unicode="&#x12c;" horiz-adv-x="276" 
d="M212 667v-667h-148v667h148zM-27 878l123 9q2 -49 9 -59q10 -14 31 -14q22 0 31 17q7 12 13 56l123 -9q-6 -49 -8.5 -60.5t-11.5 -28.5q-21 -42 -60 -65.5t-87 -23.5q-58 0 -102 32q-38 28 -53 71q-7 18 -8 75z" />
    <glyph glyph-name="ibreve" unicode="&#x12d;" horiz-adv-x="238" 
d="M190 443v-443h-142v443h142zM-46 669l123 9q2 -47 9.5 -61.5t29.5 -14.5q35 0 41 47q2 15 4 29l123 -9q-6 -50 -8.5 -61t-11.5 -28q-21 -43 -60 -66t-87 -23q-58 0 -102 32q-38 27 -53 71q-7 18 -8 75z" />
    <glyph glyph-name="Iogonek" unicode="&#x12e;" horiz-adv-x="276" 
d="M212 0q-28 -37 -28 -54q0 -6 7 -6q14 0 36 12l43 -101q-45 -15 -63.5 -19.5t-39.5 -4.5q-58 0 -93 33q-31 28 -31 69q0 32 27 71h-6v667h148v-667z" />
    <glyph glyph-name="iogonek" unicode="&#x12f;" horiz-adv-x="238" 
d="M190 0q-28 -37 -28 -54q0 -6 7 -6q14 0 36 12l43 -101q-45 -15 -63.5 -19.5t-39.5 -4.5q-58 0 -93 33q-31 28 -31 69q0 32 27 71v443h142v-443zM34 596q0 36 28 61q24 21 57 21q38 0 63 -27q21 -24 21 -55q0 -37 -27 -61q-25 -21 -57 -21q-38 0 -63 27q-22 23 -22 55z
" />
    <glyph glyph-name="Idotaccent" unicode="&#x130;" horiz-adv-x="276" 
d="M213 667v-667h-148v667h148zM54 800q0 36 28 61q24 21 57 21q37 0 63 -27q21 -24 21 -55q0 -37 -28 -61q-24 -22 -57 -22q-37 0 -62 28q-22 23 -22 55z" />
    <glyph glyph-name="dotlessi" unicode="&#x131;" horiz-adv-x="238" 
d="M190 443v-443h-142v443h142z" />
    <glyph glyph-name="IJ" unicode="&#x132;" horiz-adv-x="697" 
d="M212 667v-667h-148v667h148zM633 667v-459q0 -49 -6.5 -79.5t-23.5 -59.5q-22 -40 -63 -62.5t-92 -22.5t-94 21t-91 70l82 96q56 -62 99 -62q56 0 56 99v459h133z" />
    <glyph glyph-name="ij" unicode="&#x133;" horiz-adv-x="479" 
d="M34 596q0 36 28 61q24 21 57 21q37 0 63 -27q21 -24 21 -55q0 -37 -28 -61q-24 -21 -56 -21q-38 0 -63 27q-22 23 -22 55zM190 443v-443h-142v443h142zM431 443v-530q0 -80 -41 -122q-35 -36 -94 -36q-37 0 -78 14v131q35 -14 53 -14q17 0 17 33v524h143zM275 596
q0 36 28 61q24 21 56 21q38 0 63 -27q22 -24 22 -55q0 -37 -28 -61q-24 -21 -57 -21q-37 0 -62 27q-22 23 -22 55z" />
    <glyph glyph-name="Jcircumflex" unicode="&#x134;" horiz-adv-x="431" 
d="M368 667v-458q0 -48 -7 -79t-24 -61q-23 -41 -65 -63.5t-95 -22.5t-97 21.5t-92 71.5l88 106q54 -61 94 -61q50 0 50 88v458h148zM173 694l-108 50l152 155h85l152 -155l-108 -50l-87 78z" />
    <glyph glyph-name="jcircumflex" unicode="&#x135;" horiz-adv-x="244" 
d="M196 443v-530q0 -80 -40 -122q-35 -36 -95 -36q-36 0 -78 14v131q36 -14 54 -14q17 0 17 33v524h142zM198 485l-86 82l-87 -82l-107 50l152 155h84l151 -155z" />
    <glyph glyph-name="Kcommaaccent" unicode="&#x136;" horiz-adv-x="616" 
d="M360 383l255 -383h-175l-181 276l-47 -51v-225h-148v667h148v-240l224 240h189zM284 -16l132 -38l-90 -195l-107 30z" />
    <glyph glyph-name="kcommaaccent" unicode="&#x137;" horiz-adv-x="500" 
d="M312 255l202 -255h-177l-124 160l-24 -24v-136h-142v667h142v-348l127 124h191zM214 -16l133 -38l-91 -195l-106 30z" />
    <glyph glyph-name="kgreenlandic" unicode="&#x138;" horiz-adv-x="500" 
d="M312 255l202 -255h-177l-124 160l-24 -24v-136h-142v443h142v-124l127 124h191z" />
    <glyph glyph-name="Lacute" unicode="&#x139;" horiz-adv-x="444" 
d="M64 667h148v-530h235v-137h-383v667zM324 854l-172 -161l-96 51l137 175z" />
    <glyph glyph-name="lacute" unicode="&#x13a;" horiz-adv-x="239" 
d="M302 856l-172 -160l-96 50l137 175zM190 0h-142v667h142v-667z" />
    <glyph glyph-name="Lcommaaccent" unicode="&#x13b;" horiz-adv-x="446" 
d="M64 667h148v-530h235v-137h-383v667zM225 -16l133 -38l-91 -195l-107 30z" />
    <glyph glyph-name="lcommaaccent" unicode="&#x13c;" horiz-adv-x="239" 
d="M191 0h-143v667h143v-667zM71 -16l133 -38l-91 -195l-106 30z" />
    <glyph glyph-name="Lcaron" unicode="&#x13d;" horiz-adv-x="446" 
d="M64 667h148v-530h235v-137h-383v667zM315 705l133 -38l-91 -195l-106 30z" />
    <glyph glyph-name="lcaron" unicode="&#x13e;" horiz-adv-x="391" 
d="M190 0h-142v667h142v-667zM279 709l133 -38l-91 -195l-106 30z" />
    <glyph glyph-name="Ldot" unicode="&#x13f;" horiz-adv-x="446" 
d="M64 667h148v-530h235v-137h-383v667zM267 333q0 37 28 61q24 22 57 22q38 0 63 -28q22 -23 22 -55q0 -36 -28 -61q-25 -21 -57 -21q-38 0 -63 27q-22 24 -22 55z" />
    <glyph glyph-name="ldot" unicode="&#x140;" horiz-adv-x="401" 
d="M235 333q0 37 28 61q24 22 56 22q38 0 63 -28q22 -23 22 -55q0 -36 -28 -61q-24 -21 -57 -21q-37 0 -63 27q-21 24 -21 55zM190 0h-142v667h142v-667z" />
    <glyph glyph-name="Lslash" unicode="&#x141;" horiz-adv-x="459" 
d="M226 461l104 63v-141l-104 -62v-184h235v-137h-383v232l-65 -40v141l65 39v295h148v-206z" />
    <glyph glyph-name="lslash" unicode="&#x142;" horiz-adv-x="280" 
d="M69 237l-60 -37v142l60 37v288h142v-200l60 37v-142l-60 -37v-325h-142v237z" />
    <glyph glyph-name="Nacute" unicode="&#x143;" horiz-adv-x="708" 
d="M64 0v667h124l308 -405v405h148v-667h-124l-308 405v-405h-148zM556 854l-172 -161l-96 51l136 175z" />
    <glyph glyph-name="nacute" unicode="&#x144;" horiz-adv-x="511" 
d="M444 644l-172 -160l-96 51l137 175zM189 426q44 34 98 34q45 0 85 -23t63 -62q28 -49 28 -135v-240h-142v233q0 57 -13 78t-48 21q-43 0 -59 -28q-12 -21 -12 -80v-224h-142v443h142v-17z" />
    <glyph glyph-name="Ncommaaccent" unicode="&#x145;" horiz-adv-x="708" 
d="M64 0v667h124l308 -405v405h148v-667h-124l-308 405v-405h-148zM320 -16l133 -38l-91 -195l-106 30z" />
    <glyph glyph-name="ncommaaccent" unicode="&#x146;" horiz-adv-x="511" 
d="M189 426q44 34 98 34q45 0 85 -23t63 -62q28 -49 28 -135v-240h-142v233q0 57 -13 78t-48 21q-43 0 -59 -28q-12 -21 -12 -80v-224h-142v443h142v-17zM221 -16l133 -38l-91 -195l-106 30z" />
    <glyph glyph-name="Ncaron" unicode="&#x147;" horiz-adv-x="708" 
d="M64 0v667h124l308 -405v405h148v-667h-124l-308 405v-405h-148zM284 902l87 -77l86 77l108 -50l-152 -155h-85l-152 155z" />
    <glyph glyph-name="ncaron" unicode="&#x148;" horiz-adv-x="511" 
d="M189 426q44 34 98 34q45 0 85 -23t63 -62q28 -49 28 -135v-240h-142v233q0 57 -13 78t-48 21q-43 0 -59 -28q-12 -21 -12 -80v-224h-142v443h142v-17zM347 702l107 -50l-152 -154h-84l-152 154l108 50l86 -82z" />
    <glyph glyph-name="napostrophe" unicode="&#x149;" horiz-adv-x="614" 
d="M88 693l126 -42l-126 -264l-104 38zM293 426q44 34 97 34q46 0 86 -23t62 -62q29 -49 29 -135v-240h-142v233q0 57 -13.5 78t-48.5 21q-43 0 -58 -28q-12 -21 -12 -80v-224h-142v443h142v-17z" />
    <glyph glyph-name="Eng" unicode="&#x14a;" horiz-adv-x="708" 
d="M644 667v-667q-1 -78 -41 -119q-35 -35 -94 -35q-36 0 -78 14v131q36 -14 53 -14q18 0 18 33v14l-290 381v-405h-148v667h124l308 -405v405h148z" />
    <glyph glyph-name="eng" unicode="&#x14b;" horiz-adv-x="511" 
d="M189 426q44 34 98 34q45 0 85 -23t63 -62q14 -25 20 -52.5t8 -82.5q3 -34 3 -143q0 -90 -4.5 -125.5t-19.5 -64.5t-45.5 -45t-68.5 -16q-36 0 -78 14v131q36 -14 54 -14q17 0 17 32v172v52q0 57 -13 78t-48 21q-43 0 -59 -28q-12 -21 -12 -80v-224h-142v443h142v-17z" />
    <glyph glyph-name="Omacron" unicode="&#x14c;" horiz-adv-x="763" 
d="M26 333q0 94 49 176q47 80 128 126q83 48 178 48q96 0 179 -48q81 -47 128 -126q49 -82 49 -176t-49 -176q-48 -79 -128 -126q-83 -48 -179 -48q-95 0 -178 48q-81 47 -128 126q-49 82 -49 176zM175 333q0 -94 68 -157q59 -55 138 -55q92 0 154 70q53 61 53 142
q0 95 -68 158q-59 54 -139 54q-92 0 -153 -70q-53 -60 -53 -142zM213 858h336v-117h-336v117z" />
    <glyph glyph-name="omacron" unicode="&#x14d;" horiz-adv-x="520" 
d="M260 460q109 0 180 -78q61 -67 61 -160q0 -108 -79 -178q-68 -61 -162 -61q-109 0 -180 78q-61 68 -61 161q0 107 79 177q68 61 162 61zM260 332q-47 0 -74 -34q-24 -30 -24 -76q0 -53 31 -84q26 -27 67 -27q47 0 74 35q24 30 24 76q0 53 -30 84q-27 26 -68 26zM92 649
h336v-117h-336v117z" />
    <glyph glyph-name="Obreve" unicode="&#x14e;" horiz-adv-x="763" 
d="M26 333q0 94 49 176q47 80 128 126q83 48 178 48q96 0 179 -48q81 -47 128 -126q49 -82 49 -176t-49 -176q-48 -79 -128 -126q-83 -48 -179 -48q-95 0 -178 48q-81 47 -128 126q-49 82 -49 176zM175 333q0 -94 68 -157q59 -55 138 -55q92 0 154 70q53 61 53 142
q0 95 -68 158q-59 54 -139 54q-92 0 -153 -70q-53 -60 -53 -142zM216 878l123 9q2 -49 10 -59q10 -14 30 -14q23 0 32 17q6 12 13 56l122 -9q-6 -49 -8 -60.5t-11 -28.5q-22 -42 -60.5 -65.5t-87.5 -23.5q-58 0 -102 32q-38 28 -53 71q-6 18 -8 75z" />
    <glyph glyph-name="obreve" unicode="&#x14f;" horiz-adv-x="520" 
d="M260 460q109 0 180 -78q61 -67 61 -160q0 -108 -79 -178q-68 -61 -162 -61q-109 0 -180 78q-61 68 -61 161q0 107 79 177q68 61 162 61zM260 332q-47 0 -74 -34q-24 -30 -24 -76q0 -53 31 -84q26 -27 67 -27q47 0 74 35q24 30 24 76q0 53 -30 84q-27 26 -68 26zM95 669
l123 9q2 -47 9.5 -61.5t29.5 -14.5q35 0 41 47q2 10 4 29l123 -9q-6 -50 -8.5 -61t-11.5 -28q-21 -43 -60 -66t-87 -23q-58 0 -102 32q-38 27 -53 71q-7 18 -8 75z" />
    <glyph glyph-name="Ohungarumlaut" unicode="&#x150;" horiz-adv-x="763" 
d="M481 859l41 58l115 -62l-171 -160l-72 42l65 91l-143 -133l-81 48l136 174zM26 333q0 94 49 176q47 80 128 126q83 48 178 48q96 0 179 -48q81 -47 128 -126q49 -82 49 -176t-49 -176q-48 -79 -128 -126q-83 -48 -179 -48q-95 0 -178 48q-81 47 -128 126q-49 82 -49 176z
M175 333q0 -94 68 -157q59 -55 138 -55q92 0 154 70q53 61 53 142q0 95 -68 158q-59 54 -139 54q-92 0 -153 -70q-53 -60 -53 -142z" />
    <glyph glyph-name="ohungarumlaut" unicode="&#x151;" horiz-adv-x="536" 
d="M361 648l41 58l115 -62l-171 -160l-72 42l65 91l-143 -133l-81 48l136 174zM260 460q109 0 180 -78q61 -67 61 -160q0 -108 -79 -178q-68 -61 -162 -61q-109 0 -180 78q-61 68 -61 161q0 107 79 177q68 61 162 61zM260 332q-47 0 -74 -34q-24 -30 -24 -76q0 -53 30 -84
q27 -27 68 -27q47 0 74 35q24 30 24 76q0 53 -30 84q-27 26 -68 26z" />
    <glyph glyph-name="OE" unicode="&#x152;" horiz-adv-x="1019" 
d="M989 0h-401v51q-95 -68 -202 -68q-98 0 -182 48q-81 46 -129 125q-49 82 -49 177t49 177q48 79 129 126q84 47 181 47q108 0 203 -67v51h392v-136h-245v-125h218v-137h-218v-133h254v-136zM175 333q0 -95 68 -158q59 -55 138 -55q92 0 154 70q53 61 53 143q0 95 -68 158
q-59 54 -139 54q-92 0 -153 -70q-53 -60 -53 -142z" />
    <glyph glyph-name="oe" unicode="&#x153;" horiz-adv-x="833" 
d="M428 393q66 67 159 67q106 0 171 -79q56 -68 56 -168q0 -13 -1 -38h-309q12 -36 33 -52t54 -16q55 0 84 45l127 -49q-77 -120 -210 -120q-96 0 -164 67q-70 -67 -167 -67q-109 0 -181 78q-61 67 -61 161q0 108 79 178q68 60 163 60q97 0 167 -67zM673 268
q-12 37 -31.5 53t-53.5 16q-65 0 -84 -69h169zM260 332q-47 0 -74 -34q-24 -30 -24 -76q0 -53 30 -84q27 -27 68 -27q47 0 74 35q24 30 24 76q0 53 -30 84q-27 26 -68 26z" />
    <glyph glyph-name="Racute" unicode="&#x154;" horiz-adv-x="568" 
d="M392 0l-129 233h-3h-1l-15 -1h-16h-16v-232h-148v667h164q102 0 159 -33q52 -30 81 -84q24 -48 24 -102q0 -53 -23 -98.5t-65 -74.5l155 -275h-167zM211 367h25q64 0 90 22q23 19 23 59q0 43 -27 63.5t-86 20.5h-25v-165zM443 854l-172 -161l-96 51l137 175z" />
    <glyph glyph-name="racute" unicode="&#x155;" horiz-adv-x="315" 
d="M330 644l-172 -160l-96 51l136 175zM189 424q37 23 76 23q19 0 45 -5v-125q-27 3 -45 3q-47 0 -62 -25q-14 -23 -14 -80v-215h-142v443h142v-19z" />
    <glyph glyph-name="Rcommaaccent" unicode="&#x156;" horiz-adv-x="568" 
d="M392 0l-129 233h-3h-1l-15 -1h-16h-16v-232h-148v667h164q102 0 159 -33q52 -30 81 -84q24 -48 24 -102q0 -53 -23 -98.5t-65 -74.5l155 -275h-167zM211 367h25q64 0 90 22q23 19 23 59q0 43 -27 63.5t-86 20.5h-25v-165zM254 -16l133 -38l-91 -195l-106 30z" />
    <glyph glyph-name="rcommaaccent" unicode="&#x157;" horiz-adv-x="315" 
d="M189 424q37 23 76 23q19 0 45 -5v-125q-27 3 -45 3q-47 0 -62 -25q-14 -23 -14 -80v-215h-142v443h142v-19zM62 -16l133 -38l-91 -195l-106 30z" />
    <glyph glyph-name="Rcaron" unicode="&#x158;" horiz-adv-x="568" 
d="M392 0l-129 233h-3h-1l-15 -1h-16h-16v-232h-148v667h164q102 0 159 -33q52 -30 81 -84q24 -48 24 -102q0 -53 -23 -98.5t-65 -74.5l155 -275h-167zM211 367h25q64 0 90 22q23 19 23 59q0 43 -27 63.5t-86 20.5h-25v-165zM177 902l86 -77l87 77l108 -50l-153 -155h-84
l-152 155z" />
    <glyph glyph-name="rcaron" unicode="&#x159;" horiz-adv-x="314" 
d="M190 424q37 23 76 23q18 0 45 -5v-125q-28 3 -45 3q-47 0 -63 -25q-13 -23 -13 -80v-215h-143v443h143v-19zM266 702l107 -50l-151 -154h-84l-152 154l107 50l87 -82z" />
    <glyph glyph-name="Sacute" unicode="&#x15a;" horiz-adv-x="530" 
d="M491 549l-122 -77q-30 46 -48.5 60t-49.5 14q-30 0 -50.5 -19t-20.5 -46q0 -35 67 -60l60 -23q93 -35 134 -86q36 -45 36 -108q0 -99 -77 -164q-67 -57 -160 -57q-55 0 -103.5 22t-78.5 60q-36 46 -54 126l145 39q2 -7 6 -24q21 -85 87 -85q39 0 64 27q23 23 23 55
q0 22 -18.5 38t-65.5 34l-58 22q-154 58 -154 185q0 92 72 151q63 50 151 50q71 0 121.5 -31.5t93.5 -102.5zM461 854l-172 -161l-96 51l137 175z" />
    <glyph glyph-name="sacute" unicode="&#x15b;" horiz-adv-x="394" 
d="M378 644l-172 -160l-96 51l137 175zM14 117l122 43q29 -53 65 -53q32 0 32 29q0 9 -6.5 15t-27.5 14l-74 30q-39 16 -60.5 47.5t-21.5 70.5q0 67 54 110q47 37 113 37q106 0 164 -102l-114 -52q-22 32 -51 32q-30 0 -30 -22q0 -8 6.5 -13.5t24.5 -12.5l62 -24
q103 -39 103 -124q0 -72 -57 -119q-49 -40 -119 -40q-132 0 -185 134z" />
    <glyph glyph-name="Scircumflex" unicode="&#x15c;" horiz-adv-x="530" 
d="M491 549l-122 -77q-30 46 -48.5 60t-49.5 14q-30 0 -50.5 -19t-20.5 -46q0 -35 67 -60l60 -23q93 -35 134 -86q36 -45 36 -108q0 -99 -77 -164q-67 -57 -160 -57q-55 0 -103.5 22t-78.5 60q-36 46 -54 126l145 39q2 -7 6 -24q21 -85 87 -85q39 0 64 27q23 23 23 55
q0 22 -18.5 38t-65.5 34l-58 22q-154 58 -154 185q0 92 72 151q63 50 151 50q71 0 121.5 -31.5t93.5 -102.5zM175 694l-108 50l152 155h84l153 -155l-108 -50l-87 78z" />
    <glyph glyph-name="scircumflex" unicode="&#x15d;" horiz-adv-x="398" 
d="M15 117l122 43q28 -53 65 -53q32 0 32 29q0 9 -7 15t-27 14l-74 30q-39 16 -61 47.5t-22 70.5q0 67 54 110q47 37 113 37q106 0 165 -102l-115 -52q-21 32 -51 32q-29 0 -29 -22q0 -14 31 -26l62 -24q103 -39 103 -124q0 -72 -57 -119q-50 -40 -119 -40q-133 0 -185 134z
M288 485l-86 82l-87 -82l-107 50l152 155h84l151 -155z" />
    <glyph glyph-name="Scedilla" unicode="&#x15e;" horiz-adv-x="530" 
d="M259 -17l125 -50l-142 -167l-103 47l117 170q-88 2 -151 54q-57 48 -81 154l145 39q2 -7 6 -24q21 -85 87 -85q39 0 64 27q23 23 23 55q0 22 -18.5 38t-65.5 34l-58 22q-154 58 -154 185q0 92 72 151q63 50 151 50q71 0 121.5 -31.5t93.5 -102.5l-122 -77
q-30 46 -48.5 60t-49.5 14q-30 0 -50.5 -19t-20.5 -46q0 -35 67 -60l60 -23q93 -35 134 -86q36 -45 36 -108q0 -100 -77 -165q-67 -56 -161 -56z" />
    <glyph glyph-name="scedilla" unicode="&#x15f;" horiz-adv-x="394" 
d="M14 117l122 43q29 -53 65 -53q32 0 32 29q0 9 -6.5 15t-27.5 14l-74 30q-39 16 -60.5 47.5t-21.5 70.5q0 67 54 110q47 37 113 37q106 0 164 -102l-114 -52q-22 32 -51 32q-30 0 -30 -22q0 -8 6.5 -13.5t24.5 -12.5l62 -24q103 -39 103 -124q0 -72 -57 -119
q-49 -40 -119 -40q-132 0 -185 134zM316 -67l-142 -167l-103 47l117 171z" />
    <glyph glyph-name="Scaron" unicode="&#x160;" horiz-adv-x="530" 
d="M491 549l-122 -77q-30 46 -48.5 60t-49.5 14q-30 0 -50.5 -19t-20.5 -46q0 -35 67 -60l60 -23q93 -35 134 -86q36 -45 36 -108q0 -99 -77 -164q-67 -57 -160 -57q-55 0 -103.5 22t-78.5 60q-36 46 -54 126l145 39q2 -7 6 -24q21 -85 87 -85q39 0 64 27q23 23 23 55
q0 22 -18.5 38t-65.5 34l-58 22q-154 58 -154 185q0 92 72 151q63 50 151 50q71 0 121.5 -31.5t93.5 -102.5zM175 902l86 -77l87 77l108 -50l-153 -155h-84l-152 155z" />
    <glyph glyph-name="scaron" unicode="&#x161;" horiz-adv-x="398" 
d="M15 117l122 43q28 -53 65 -53q32 0 32 29q0 9 -7 15t-27 14l-74 30q-39 16 -61 47.5t-22 70.5q0 67 54 110q47 37 113 37q106 0 165 -102l-115 -52q-21 32 -51 32q-29 0 -29 -22q0 -14 31 -26l62 -24q103 -39 103 -124q0 -72 -57 -119q-50 -40 -119 -40q-133 0 -185 134z
M288 702l107 -50l-151 -154h-84l-152 154l107 50l87 -82z" />
    <glyph glyph-name="uni0162" unicode="&#x162;" horiz-adv-x="443" 
d="M452 667v-137h-156v-530h-148v530h-157v137h461zM183 -16l133 -38l-91 -195l-107 30z" />
    <glyph glyph-name="uni0163" unicode="&#x163;" horiz-adv-x="282" 
d="M192 317v-162q0 -33 18 -33q17 0 53 14v-131q-42 -14 -79 -14q-68 0 -103 47q-31 41 -31 111v168h-44v126h44v89l142 55v-144h65v-126h-65zM101 -16l132 -38l-90 -195l-107 30z" />
    <glyph glyph-name="Tcaron" unicode="&#x164;" horiz-adv-x="443" 
d="M452 667v-137h-156v-530h-148v530h-157v137h461zM135 902l87 -77l86 77l108 -50l-152 -155h-84l-153 155z" />
    <glyph glyph-name="tcaron" unicode="&#x165;" horiz-adv-x="393" 
d="M192 317v-162q0 -33 18 -33q17 0 53 14v-131q-42 -14 -79 -14q-68 0 -103 47q-31 41 -31 111v168h-44v126h44v89l142 55v-144h65v-126h-65zM281 709l133 -38l-91 -195l-106 30z" />
    <glyph glyph-name="Tbar" unicode="&#x166;" horiz-adv-x="443" 
d="M148 316h-97v127h97v87h-157v137h461v-137h-156v-87h97v-127h-97v-316h-148v316z" />
    <glyph glyph-name="tbar" unicode="&#x167;" horiz-adv-x="282" 
d="M50 443v89l142 55v-144h65v-104h-65v-31h65v-105h-65v-48q0 -33 18 -33q17 0 53 14v-131q-42 -14 -79 -14q-68 0 -103 47q-31 41 -31 111v54h-44v105h44v31h-44v104h44z" />
    <glyph glyph-name="Utilde" unicode="&#x168;" horiz-adv-x="645" 
d="M212 667v-408q0 -67 13 -90q12 -20 39.5 -34t57.5 -14t58 14t40 34q13 23 13 90v408h148v-426q0 -84 -30 -135q-36 -60 -103 -94q-59 -29 -126 -29q-77 0 -141 38q-56 33 -87 85q-30 51 -30 135v426h148zM374 881l118 -25q-4 -56 -21 -84q-13 -21 -37.5 -33.5
t-52.5 -12.5q-40 0 -81 20q-12 6 -19 6q-5 0 -7 -5.5t-6 -28.5l-115 25q5 55 24 84q13 21 36.5 33.5t48.5 12.5q41 0 85 -23q10 -6 16 -6q5 0 7 7t4 30z" />
    <glyph glyph-name="utilde" unicode="&#x169;" horiz-adv-x="511" 
d="M321 18q-44 -35 -97 -35q-46 0 -86 23t-63 62q-28 49 -28 135v240h142v-233q0 -56 13 -77.5t49 -21.5q42 0 58 28q12 21 12 80v224h142v-443h-142v18zM306 673l119 -26q-5 -56 -21 -84q-13 -21 -37.5 -33.5t-52.5 -12.5q-40 0 -81 21q-12 5 -19 5q-5 0 -7 -6t-6 -28
l-115 26q5 55 24 84q13 20 36 32.5t48 12.5q41 0 86 -23q10 -5 16 -5q5 0 7 6.5t3 30.5z" />
    <glyph glyph-name="Umacron" unicode="&#x16a;" horiz-adv-x="645" 
d="M212 667v-408q0 -67 13 -90q12 -20 39.5 -34t57.5 -14t58 14t40 34q13 23 13 90v408h148v-426q0 -84 -30 -135q-36 -60 -103 -94q-59 -29 -126 -29q-77 0 -141 38q-56 33 -87 85q-30 51 -30 135v426h148zM154 858h336v-117h-336v117z" />
    <glyph glyph-name="umacron" unicode="&#x16b;" horiz-adv-x="511" 
d="M321 18q-44 -35 -97 -35q-46 0 -86 23t-63 62q-28 49 -28 135v240h142v-233q0 -56 13 -77.5t49 -21.5q42 0 58 28q12 21 12 80v224h142v-443h-142v18zM87 649h336v-117h-336v117z" />
    <glyph glyph-name="Ubreve" unicode="&#x16c;" horiz-adv-x="645" 
d="M212 667v-408q0 -67 13 -90q12 -20 39.5 -34t57.5 -14t58 14t40 34q13 23 13 90v408h148v-426q0 -84 -30 -135q-36 -60 -103 -94q-59 -29 -126 -29q-77 0 -141 38q-56 33 -87 85q-30 51 -30 135v426h148zM157 878l123 9q2 -49 10 -59q10 -14 30 -14q23 0 32 17
q6 12 13 56l122 -9q-6 -49 -8.5 -60.5t-10.5 -28.5q-22 -42 -60.5 -65.5t-87.5 -23.5q-58 0 -102 32q-38 28 -53 71q-6 18 -8 75z" />
    <glyph glyph-name="ubreve" unicode="&#x16d;" horiz-adv-x="511" 
d="M321 18q-44 -35 -97 -35q-46 0 -86 23t-63 62q-28 49 -28 135v240h142v-233q0 -56 13 -77.5t49 -21.5q42 0 58 28q12 21 12 80v224h142v-443h-142v18zM91 669l123 9q2 -52 10 -63q10 -13 30 -13q34 0 41 47q0 6 4 29l122 -9q-6 -49 -8 -60.5t-11 -28.5
q-22 -42 -60.5 -65.5t-87.5 -23.5q-58 0 -102 32q-38 27 -53 71q-6 19 -8 75z" />
    <glyph glyph-name="Uring" unicode="&#x16e;" horiz-adv-x="645" 
d="M201 800q0 52 40 88q35 31 81 31q54 0 90 -40q31 -33 31 -79q0 -53 -40 -89q-34 -30 -81 -30q-53 0 -89 39q-32 34 -32 80zM271 800q0 -22 15 -37t36 -15q22 0 37 15t15 37q0 21 -15 36t-37 15q-21 0 -36 -15t-15 -36zM212 667v-408q0 -67 13 -90q12 -20 39.5 -34
t57.5 -14t58 14t40 34q13 23 13 90v408h148v-426q0 -84 -30 -135q-36 -60 -103 -94q-59 -29 -126 -29q-77 0 -141 38q-56 33 -87 85q-30 51 -30 135v426h148z" />
    <glyph glyph-name="uring" unicode="&#x16f;" horiz-adv-x="511" 
d="M321 18q-44 -35 -97 -35q-46 0 -86 23t-63 62q-28 49 -28 135v240h142v-233q0 -56 13 -77.5t49 -21.5q42 0 58 28q12 21 12 80v224h142v-443h-142v18zM134 591q0 52 40 88q35 31 81 31q54 0 90 -39q31 -34 31 -80q0 -53 -40 -89q-34 -30 -81 -30q-53 0 -90 39
q-31 34 -31 80zM203 591q0 -22 15.5 -37t36.5 -15q22 0 37 15t15 37q0 21 -15 36t-37 15q-21 0 -36.5 -15t-15.5 -36z" />
    <glyph glyph-name="Uhungarumlaut" unicode="&#x170;" horiz-adv-x="649" 
d="M418 859l41 58l115 -62l-171 -160l-72 42l65 91l-142 -133l-81 48l135 174zM212 667v-408q0 -67 13 -90q12 -20 39.5 -34t57.5 -14t58 14t40 34q13 23 13 90v408h148v-426q0 -84 -30 -135q-36 -60 -103 -94q-59 -29 -126 -29q-77 0 -141 38q-56 33 -87 85q-30 51 -30 135
v426h148z" />
    <glyph glyph-name="uhungarumlaut" unicode="&#x171;" horiz-adv-x="511" 
d="M339 648l41 58l115 -62l-171 -160l-72 42l65 91l-143 -133l-81 48l136 174zM321 18q-44 -35 -97 -35q-46 0 -86 23t-63 62q-28 49 -28 135v240h142v-233q0 -56 13 -77.5t49 -21.5q42 0 58 28q12 21 12 80v224h142v-443h-142v18z" />
    <glyph glyph-name="Uogonek" unicode="&#x172;" horiz-adv-x="645" 
d="M392 -8q-22 -30 -22 -46q0 -6 8 -6q13 0 36 12l43 -101q-46 -15 -64.5 -19.5t-39.5 -4.5q-58 0 -93 33q-31 28 -31 69q0 29 22 64q-59 14 -105 52q-43 36 -62.5 82.5t-19.5 113.5v426h148v-408q0 -67 13 -90q12 -20 39.5 -34t57.5 -14t58 14t40 34q13 23 13 90v408h148
v-426q0 -106 -53 -168q-50 -58 -136 -81z" />
    <glyph glyph-name="uogonek" unicode="&#x173;" horiz-adv-x="511" 
d="M463 0q-28 -37 -28 -54q0 -6 7 -6q14 0 37 12l42 -101q-44 -15 -63 -19.5t-40 -4.5q-58 0 -93 33q-31 28 -31 69q0 32 27 71v18q-44 -35 -97 -35q-46 0 -86 23t-63 62q-28 49 -28 135v240h142v-233q0 -56 13 -77.5t49 -21.5q42 0 58 28q12 21 12 80v224h142v-443z" />
    <glyph glyph-name="Wcircumflex" unicode="&#x174;" horiz-adv-x="877" 
d="M145 667l116 -394l117 394h121l117 -395l116 395h154l-200 -667h-130l-117 395l-118 -395h-129l-201 667h154zM352 694l-108 50l153 155h84l152 -155l-108 -50l-86 78z" />
    <glyph glyph-name="wcircumflex" unicode="&#x175;" horiz-adv-x="654" 
d="M-15 443h149l71 -213l69 213h106l70 -213l71 213h148l-159 -443h-114l-69 209l-69 -209h-114zM414 485l-87 82l-86 -82l-108 50l152 155h84l152 -155z" />
    <glyph glyph-name="Ycircumflex" unicode="&#x176;" horiz-adv-x="565" 
d="M208 275l-224 392h166l132 -239l133 239h165l-224 -392v-275h-148v275zM196 694l-108 50l152 155h85l152 -155l-108 -50l-87 78z" />
    <glyph glyph-name="ycircumflex" unicode="&#x177;" horiz-adv-x="475" 
d="M153 24l-168 419h150l96 -245l110 245h150l-303 -676h-150zM325 485l-87 82l-86 -82l-108 50l152 155h84l152 -155z" />
    <glyph glyph-name="Ydieresis" unicode="&#x178;" horiz-adv-x="565" 
d="M208 275l-224 392h166l132 -239l133 239h165l-224 -392v-275h-148v275zM298 800q0 34 26 56q22 20 53 20q34 0 58 -25q20 -22 20 -51q0 -34 -26 -57q-22 -20 -53 -20q-35 0 -58 25q-20 22 -20 52zM109 800q0 34 26 56q23 20 53 20q35 0 58 -25q21 -22 21 -51
q0 -34 -26 -57q-23 -20 -53 -20q-35 0 -58 25q-21 22 -21 52z" />
    <glyph glyph-name="Zacute" unicode="&#x179;" horiz-adv-x="516" 
d="M500 557l-296 -419h303v-138h-499v109l301 421h-274v137h465v-110zM435 854l-172 -161l-96 51l137 175z" />
    <glyph glyph-name="zacute" unicode="&#x17a;" horiz-adv-x="423" 
d="M385 644l-171 -160l-96 51l136 175zM405 443v-100l-192 -217h201v-126h-397v100l193 218h-180v125h375z" />
    <glyph glyph-name="Zdotaccent" unicode="&#x17b;" horiz-adv-x="516" 
d="M500 557l-296 -419h303v-138h-499v109l301 421h-274v137h465v-110zM189 800q0 36 28 61q24 21 57 21q37 0 62 -27q22 -24 22 -55q0 -37 -28 -61q-24 -22 -57 -22q-37 0 -62 28q-22 23 -22 55z" />
    <glyph glyph-name="zdotaccent" unicode="&#x17c;" horiz-adv-x="423" 
d="M405 443v-100l-192 -217h201v-126h-397v100l193 218h-180v125h375zM130 596q0 36 28 61q24 21 57 21q38 0 63 -27q22 -24 22 -55q0 -37 -28 -61q-24 -21 -57 -21q-38 0 -63 27q-22 23 -22 55z" />
    <glyph glyph-name="Zcaron" unicode="&#x17d;" horiz-adv-x="516" 
d="M500 557l-296 -419h303v-138h-499v109l301 421h-274v137h465v-110zM188 902l86 -77l86 77l108 -50l-152 -155h-84l-153 155z" />
    <glyph glyph-name="zcaron" unicode="&#x17e;" horiz-adv-x="423" 
d="M403 443v-100l-192 -217h201v-126h-397v100l193 218h-180v125h375zM300 702l107 -50l-152 -154h-84l-151 154l107 50l86 -82z" />
    <glyph glyph-name="uni018F" unicode="&#x18f;" horiz-adv-x="752" 
d="M26 391h542q-23 76 -82 118q-51 37 -116 37q-120 0 -179 -124l-130 71q98 190 307 190q99 0 182 -47q81 -45 127 -124q48 -82 48 -179q0 -94 -48 -176q-46 -79 -125 -126q-82 -48 -176 -48q-67 0 -129.5 25t-111.5 71q-56 54 -82.5 122.5t-26.5 162.5v27zM185 280
q14 -76 72 -121q52 -38 119 -38q104 0 163 86q17 26 30 73h-384z" />
    <glyph glyph-name="florin" unicode="&#x192;" horiz-adv-x="498" 
d="M-7 -185l27 128q9 -2 19 -6q19 -7 32 -7q20 0 28 40l73 347h-42l27 126h41l17 80q17 79 63 120q40 36 96 36q35 0 90 -17l-27 -127q-38 13 -50 13q-21 0 -29 -40l-14 -65h75l-27 -126h-74l-76 -363q-16 -78 -63 -120q-40 -36 -96 -36q-35 0 -90 17z" />
    <glyph glyph-name="uni01C4" unicode="&#x1c4;" horiz-adv-x="1137" 
d="M64 667h164q179 0 279 -103q88 -89 88 -230q0 -163 -113 -254q-98 -80 -254 -80h-164v667zM212 529v-392h19q107 0 165 59q51 52 51 137q0 98 -65 151q-57 45 -151 45h-19zM1121 557l-297 -419h304v-138h-499v109l301 421h-274v137h465v-110zM808 902l87 -77l86 77
l108 -50l-152 -155h-84l-153 155z" />
    <glyph glyph-name="uni01C5" unicode="&#x1c5;" horiz-adv-x="1044" 
d="M64 667h164q179 0 279 -103q88 -89 88 -230q0 -163 -113 -254q-98 -80 -254 -80h-164v667zM212 529v-392h19q107 0 165 59q51 52 51 137q0 98 -65 151q-57 45 -151 45h-19zM1024 443v-100l-192 -217h201v-126h-397v100l193 218h-180v125h375zM921 702l107 -50l-151 -154
h-84l-152 154l107 50l87 -82z" />
    <glyph glyph-name="uni01C6" unicode="&#x1c6;" horiz-adv-x="966" 
d="M496 0h-142v22q-54 -39 -111 -39q-100 0 -166 79q-58 68 -58 160q0 106 74 177q64 61 150 61q57 0 111 -38v245h142v-667zM260 332q-48 0 -75 -34q-23 -30 -23 -78q0 -52 31 -82q26 -27 67 -27q46 0 72 35q23 30 23 76q0 53 -29 84q-26 26 -66 26zM946 443v-100
l-192 -217h201v-126h-397v100l193 218h-180v125h375zM843 702l107 -50l-151 -154h-84l-152 154l107 50l87 -82z" />
    <glyph glyph-name="uni01C7" unicode="&#x1c7;" horiz-adv-x="894" 
d="M64 667h148v-530h235v-137h-383v667zM829 667v-458q0 -48 -6.5 -79t-23.5 -61q-23 -41 -65 -63.5t-95 -22.5t-97 21.5t-92 71.5l88 106q54 -61 94 -61q49 0 49 88v458h148z" />
    <glyph glyph-name="uni01C8" unicode="&#x1c8;" horiz-adv-x="690" 
d="M64 667h148v-530h235v-137h-383v667zM642 443v-530q0 -80 -40 -122q-35 -36 -95 -36q-36 0 -78 14v131q36 -14 53 -14q18 0 18 33v524h142zM486 596q0 36 28 61q24 21 57 21q37 0 63 -27q21 -24 21 -55q0 -37 -28 -61q-24 -21 -56 -21q-38 0 -63 27q-22 23 -22 55z" />
    <glyph glyph-name="uni01C9" unicode="&#x1c9;" horiz-adv-x="483" 
d="M190 0h-142v667h142v-667zM435 443v-530q0 -80 -40 -122q-35 -36 -95 -36q-36 0 -78 14v131q36 -14 53 -14q18 0 18 33v524h142zM279 596q0 36 28 61q24 21 57 21q37 0 63 -27q21 -24 21 -55q0 -37 -28 -61q-24 -21 -56 -21q-38 0 -63 27q-22 23 -22 55z" />
    <glyph glyph-name="uni01CA" unicode="&#x1ca;" horiz-adv-x="1139" 
d="M64 0v667h124l308 -405v405h148v-667h-124l-308 405v-405h-148zM1075 667v-458q0 -48 -6.5 -79t-23.5 -61q-24 -41 -65.5 -63.5t-94.5 -22.5t-97.5 21.5t-91.5 71.5l88 106q54 -61 94 -61q49 0 49 88v458h148z" />
    <glyph glyph-name="uni01CB" unicode="&#x1cb;" horiz-adv-x="952" 
d="M64 0v667h124l308 -405v405h148v-667h-124l-308 405v-405h-148zM904 443v-530q0 -80 -40 -122q-35 -36 -95 -36q-36 0 -78 14v131q36 -14 54 -14q17 0 17 33v524h142zM749 596q0 36 27 61q24 21 57 21q38 0 63 -27q22 -24 22 -55q0 -37 -28 -61q-24 -21 -57 -21
q-37 0 -63 27q-21 23 -21 55z" />
    <glyph glyph-name="uni01CC" unicode="&#x1cc;" horiz-adv-x="755" 
d="M189 426q44 34 98 34q45 0 85 -23t63 -62q28 -49 28 -135v-240h-142v233q0 57 -13 78t-48 21q-43 0 -59 -28q-12 -21 -12 -80v-224h-142v443h142v-17zM707 443v-530q0 -80 -40 -122q-35 -36 -95 -36q-36 0 -78 14v131q36 -14 53 -14q18 0 18 33v524h142zM551 596
q0 36 28 61q24 21 57 21q37 0 63 -27q21 -24 21 -55q0 -37 -28 -61q-24 -21 -56 -21q-38 0 -63 27q-22 23 -22 55z" />
    <glyph glyph-name="uni01CD" unicode="&#x1cd;" horiz-adv-x="649" 
d="M451 147h-253l-51 -147h-156l249 667h170l249 -667h-157zM403 284l-79 225l-78 -225h157zM238 902l87 -77l86 77l108 -50l-152 -155h-84l-153 155z" />
    <glyph glyph-name="uni01CE" unicode="&#x1ce;" 
d="M496 0h-142v22q-54 -39 -111 -39q-100 0 -166 79q-58 68 -58 160q0 106 74 177q64 61 150 61q57 0 111 -38v21h142v-443zM260 332q-47 0 -74 -34q-24 -30 -24 -76q0 -53 30 -84q27 -27 68 -27q46 0 72 35q24 30 24 76q0 53 -30 84q-26 26 -66 26zM344 702l107 -50
l-151 -154h-84l-152 154l107 50l87 -82z" />
    <glyph glyph-name="uni01CF" unicode="&#x1cf;" horiz-adv-x="276" 
d="M212 667v-667h-147v667h147zM52 902l87 -77l86 77l108 -50l-152 -155h-85l-152 155z" />
    <glyph glyph-name="uni01D0" unicode="&#x1d0;" horiz-adv-x="238" 
d="M190 443v-443h-142v443h142zM205 702l107 -50l-151 -154h-84l-152 154l107 50l87 -82z" />
    <glyph glyph-name="uni01D1" unicode="&#x1d1;" horiz-adv-x="763" 
d="M26 333q0 94 49 176q47 80 128 126q83 48 178 48q96 0 179 -48q81 -47 128 -126q49 -82 49 -176t-49 -176q-48 -79 -128 -126q-83 -48 -179 -48q-95 0 -178 48q-81 47 -128 126q-49 82 -49 176zM175 333q0 -94 68 -157q59 -55 138 -55q92 0 154 70q53 61 53 142
q0 95 -68 158q-59 54 -139 54q-92 0 -153 -70q-53 -60 -53 -142zM295 902l86 -77l87 77l108 -50l-152 -155h-85l-152 155z" />
    <glyph glyph-name="uni01D2" unicode="&#x1d2;" horiz-adv-x="520" 
d="M260 460q109 0 180 -78q61 -67 61 -160q0 -108 -79 -178q-68 -61 -162 -61q-109 0 -180 78q-61 68 -61 161q0 107 79 177q68 61 162 61zM260 332q-47 0 -74 -34q-24 -30 -24 -76q0 -53 31 -84q26 -27 67 -27q47 0 74 35q24 30 24 76q0 53 -30 84q-27 26 -68 26zM346 702
l108 -50l-152 -154h-84l-152 154l108 50l86 -82z" />
    <glyph glyph-name="uni01D3" unicode="&#x1d3;" horiz-adv-x="645" 
d="M212 667v-408q0 -67 13 -90q12 -20 39.5 -34t57.5 -14t58 14t40 34q13 23 13 90v408h148v-426q0 -84 -30 -135q-36 -60 -103 -94q-59 -29 -126 -29q-77 0 -141 38q-56 33 -87 85q-30 51 -30 135v426h148zM236 902l86 -77l87 77l108 -50l-152 -155h-85l-152 155z" />
    <glyph glyph-name="uni01D4" unicode="&#x1d4;" horiz-adv-x="511" 
d="M321 18q-44 -35 -97 -35q-46 0 -86 23t-63 62q-28 49 -28 135v240h142v-233q0 -56 13 -77.5t49 -21.5q42 0 58 28q12 21 12 80v224h142v-443h-142v18zM342 702l107 -50l-152 -154h-84l-152 154l108 50l86 -82z" />
    <glyph glyph-name="uni01DD" unicode="&#x1dd;" horiz-adv-x="495" 
d="M20 273h310q-13 29 -22 39q-22 25 -64 25q-48 0 -79 -38l-130 49q78 112 206 112q108 0 175 -77q59 -66 59 -161q0 -108 -75 -178q-65 -61 -155 -61q-105 0 -170 79q-56 68 -56 166q0 9 1 45zM160 182q8 -40 28 -58.5t57 -18.5q46 0 68 31q8 12 17 46h-170z" />
    <glyph glyph-name="uni01E6" unicode="&#x1e6;" horiz-adv-x="729" 
d="M369 380h332v-70q0 -106 -43 -180t-121 -113q-68 -34 -151 -34q-98 0 -182 48q-82 46 -129 125q-49 81 -49 177t49 177q47 80 128 126q84 47 182 47q77 0 140 -28.5t134 -94.5l-106 -99q-47 47 -84 65.5t-85 18.5q-95 0 -156 -68q-53 -60 -53 -144q0 -96 68 -158
q60 -54 142 -54q67 0 110 36q37 32 52 88h-178v135zM300 902l87 -77l86 77l108 -50l-152 -155h-85l-152 155z" />
    <glyph glyph-name="uni01E7" unicode="&#x1e7;" 
d="M354 22q-31 -22 -55.5 -30.5t-55.5 -8.5q-100 0 -166 79q-58 68 -58 160q0 106 74 177q64 61 150 61q31 0 55.5 -8.5t55.5 -29.5v21h142v-452q0 -115 -77 -182q-66 -59 -167 -59q-68 0 -121.5 28.5t-107.5 92.5l96 91q6 -6 14 -17q54 -67 119 -67q52 0 79 33q23 30 23 80
v31zM260 332q-47 0 -74 -34q-24 -30 -24 -76q0 -53 30 -84q27 -27 67 -27q47 0 73 35q23 29 23 76q0 53 -29 84q-26 26 -66 26zM344 702l107 -50l-151 -154h-84l-152 154l107 50l87 -82z" />
    <glyph glyph-name="uni01F4" unicode="&#x1f4;" horiz-adv-x="729" 
d="M369 380h332v-70q0 -106 -43 -180t-121 -113q-68 -34 -151 -34q-98 0 -182 48q-82 46 -129 125q-49 81 -49 177t49 177q47 80 128 126q84 47 182 47q77 0 140 -28.5t134 -94.5l-106 -99q-47 47 -84 65.5t-85 18.5q-95 0 -156 -68q-53 -60 -53 -144q0 -96 68 -158
q60 -54 142 -54q67 0 110 36q37 32 52 88h-178v135zM571 854l-172 -161l-96 51l137 175z" />
    <glyph glyph-name="uni01F5" unicode="&#x1f5;" 
d="M354 22q-31 -22 -55.5 -30.5t-55.5 -8.5q-100 0 -166 79q-58 68 -58 160q0 106 74 177q64 61 150 61q31 0 55.5 -8.5t55.5 -29.5v21h142v-452q0 -115 -77 -182q-66 -59 -167 -59q-68 0 -121.5 28.5t-107.5 92.5l96 91q6 -6 14 -17q54 -67 119 -67q52 0 79 33q23 30 23 80
v31zM260 332q-47 0 -74 -34q-24 -30 -24 -76q0 -53 30 -84q27 -27 67 -27q47 0 73 35q23 29 23 76q0 53 -29 84q-26 26 -66 26zM435 644l-172 -160l-96 51l137 175z" />
    <glyph glyph-name="Aringacute" unicode="&#x1fa;" horiz-adv-x="649" 
d="M345 917q47 -8 76 -42q25 -30 25 -68q0 -49 -40 -82q-35 -28 -81 -28q-54 0 -90 36q-31 32 -31 74q0 47 39 82l-51 25l136 163l131 -61zM273 808q0 -20 15 -34.5t37 -14.5q21 0 36 14t15 34q0 21 -15 35t-36 14q-22 0 -37 -14.5t-15 -33.5zM451 147h-253l-51 -147h-156
l249 667h170l249 -667h-157zM403 284l-79 225l-78 -225h157z" />
    <glyph glyph-name="aringacute" unicode="&#x1fb;" 
d="M265 709q53 -2 88 -41q30 -33 30 -78q0 -53 -40 -89q-34 -30 -81 -30q-54 0 -90 39q-31 34 -31 80q0 42 27 75q24 29 60 39l-76 40l137 175l131 -65zM210 590q0 -22 15 -37t37 -15q21 0 36.5 15t15.5 37q0 21 -15.5 36t-36.5 15q-22 0 -37 -15t-15 -36zM496 0h-142v22
q-54 -39 -111 -39q-100 0 -166 79q-58 68 -58 160q0 106 74 177q64 61 150 61q57 0 111 -38v21h142v-443zM260 332q-47 0 -74 -34q-24 -30 -24 -76q0 -53 30 -84q27 -27 68 -27q46 0 72 35q24 30 24 76q0 53 -30 84q-26 26 -66 26z" />
    <glyph glyph-name="AEacute" unicode="&#x1fc;" horiz-adv-x="850" 
d="M420 147h-187l-76 -147h-166l353 667h468v-136h-245v-125h218v-137h-218v-132h254v-137h-401v147zM420 284v215h-3l-112 -215h115zM704 854l-172 -161l-96 51l137 175z" />
    <glyph glyph-name="aeacute" unicode="&#x1fd;" horiz-adv-x="786" 
d="M395 406q64 54 145 54q106 0 171 -79q57 -68 57 -168q0 -13 -2 -38h-309q13 -35 33.5 -51.5t54.5 -16.5q55 0 84 46l127 -50q-78 -120 -211 -120q-84 0 -147 52q-58 -52 -161 -52q-105 0 -165 49q-53 43 -53 108q0 72 61 109q54 33 143 33h82q-19 55 -74 55
q-62 0 -133 -44l-74 92q57 41 106 58t107 17q103 0 158 -54zM627 269q-12 36 -32 52t-53 16q-66 0 -84 -68h169zM312 189h-76q-77 0 -77 -41q0 -20 20 -31.5t56 -11.5q77 0 77 50v34zM565 644l-172 -160l-96 51l137 175z" />
    <glyph glyph-name="Oslashacute" unicode="&#x1fe;" horiz-adv-x="771" 
d="M732 592l-58 -56q67 -92 67 -203q0 -94 -49 -176q-47 -79 -128 -126q-83 -48 -179 -48q-118 0 -209 69l-57 -55l-81 78l58 56q-66 93 -66 201q0 95 49 177q47 80 128 126q83 48 180 48q109 0 208 -68l57 55zM568 432l-288 -280q50 -31 106 -31q91 0 153 70q53 61 53 142
q0 53 -24 99zM203 234l289 281q-49 30 -106 30q-93 0 -154 -69q-53 -61 -53 -143q0 -54 24 -99zM567 854l-171 -161l-96 51l136 175z" />
    <glyph glyph-name="oslashacute" unicode="&#x1ff;" horiz-adv-x="533" 
d="M61 96q-35 59 -35 125q0 108 79 178q68 61 162 61q79 0 140 -43l31 30l70 -68l-35 -32q35 -59 35 -125q0 -108 -79 -178q-68 -61 -163 -61q-74 0 -139 43l-31 -29l-70 67zM171 198l136 127q-20 8 -41 8q-47 0 -74 -34q-24 -31 -24 -77q0 -14 3 -24zM363 245l-136 -127
q19 -8 40 -8q47 0 75 35q24 31 24 78q0 14 -3 22zM443 644l-172 -160l-96 51l137 175z" />
    <glyph glyph-name="uni0200" unicode="&#x200;" horiz-adv-x="649" 
d="M233 860l108 57l136 -174l-84 -48l-126 118l53 -75l-74 -43l-171 160l118 62zM451 147h-253l-51 -147h-156l249 667h170l249 -667h-157zM403 284l-79 225l-78 -225h157z" />
    <glyph glyph-name="uni0201" unicode="&#x201;" 
d="M161 649l108 57l136 -174l-84 -48l-126 118l53 -75l-74 -43l-171 160l118 62zM496 0h-142v22q-53 -39 -111 -39q-100 0 -166 79q-58 68 -58 160q0 106 74 177q64 61 150 61q58 0 111 -38v21h142v-443zM260 332q-47 0 -74 -34q-24 -30 -24 -76q0 -53 31 -84q26 -27 67 -27
q46 0 73 35q23 30 23 76q0 53 -30 84q-26 26 -66 26z" />
    <glyph glyph-name="Scommaaccent" unicode="&#x218;" horiz-adv-x="530" 
d="M491 549l-122 -77q-30 46 -48.5 60t-49.5 14q-30 0 -50.5 -19t-20.5 -46q0 -35 67 -60l60 -23q93 -35 134 -86q36 -45 36 -108q0 -99 -77 -164q-67 -57 -160 -57q-55 0 -103.5 22t-78.5 60q-36 46 -54 126l145 39q2 -7 6 -24q21 -85 87 -85q39 0 64 27q23 23 23 55
q0 22 -18.5 38t-65.5 34l-58 22q-154 58 -154 185q0 92 72 151q63 50 151 50q71 0 121.5 -31.5t93.5 -102.5zM382 -67l-142 -167l-103 47l117 171z" />
    <glyph glyph-name="scommaaccent" unicode="&#x219;" horiz-adv-x="394" 
d="M168 -16l133 -38l-91 -195l-106 30zM14 117l122 43q29 -53 65 -53q32 0 32 29q0 9 -6.5 15t-27.5 14l-74 30q-39 16 -60.5 47.5t-21.5 70.5q0 67 54 110q47 37 113 37q106 0 164 -102l-114 -52q-22 32 -51 32q-30 0 -30 -22q0 -8 6.5 -13.5t24.5 -12.5l62 -24
q103 -39 103 -124q0 -72 -57 -119q-49 -40 -119 -40q-132 0 -185 134z" />
    <glyph glyph-name="uni021A" unicode="&#x21a;" horiz-adv-x="443" 
d="M452 667v-137h-156v-530h-148v530h-157v137h461zM183 -16l133 -38l-91 -195l-107 30z" />
    <glyph glyph-name="uni021B" unicode="&#x21b;" horiz-adv-x="282" 
d="M192 317v-162q0 -33 18 -33q17 0 53 14v-131q-42 -14 -79 -14q-68 0 -103 47q-31 41 -31 111v168h-44v126h44v89l142 55v-144h65v-126h-65zM101 -16l132 -38l-90 -195l-107 30z" />
    <glyph glyph-name="uni0226" unicode="&#x226;" horiz-adv-x="649" 
d="M451 147h-253l-51 -147h-156l249 667h170l249 -667h-157zM403 284l-79 225l-78 -225h157zM240 800q0 36 28 61q24 21 57 21q38 0 63 -27q21 -24 21 -55q0 -37 -27 -61q-25 -22 -57 -22q-38 0 -63 28q-22 23 -22 55z" />
    <glyph glyph-name="uni0227" unicode="&#x227;" 
d="M496 0h-142v22q-54 -39 -111 -39q-100 0 -166 79q-58 68 -58 160q0 106 74 177q64 61 150 61q57 0 111 -38v21h142v-443zM260 332q-47 0 -74 -34q-24 -30 -24 -76q0 -53 30 -84q27 -27 68 -27q46 0 72 35q24 30 24 76q0 53 -30 84q-26 26 -66 26zM173 596q0 36 28 61
q24 21 57 21q37 0 62 -27q22 -24 22 -55q0 -37 -28 -61q-24 -21 -56 -21q-38 0 -63 27q-22 23 -22 55z" />
    <glyph glyph-name="uni0237" unicode="&#x237;" horiz-adv-x="244" 
d="M196 443v-530q0 -80 -40 -122q-35 -36 -95 -36q-36 0 -78 14v131q36 -14 53 -14q18 0 18 33v524h142z" />
    <glyph glyph-name="Wgrave" unicode="&#x1e80;" horiz-adv-x="877" 
d="M145 667l116 -394l117 394h121l117 -395l116 395h154l-200 -667h-130l-117 395l-118 -395h-129l-201 667h154zM261 854l131 65l137 -175l-96 -51z" />
    <glyph glyph-name="wgrave" unicode="&#x1e81;" horiz-adv-x="654" 
d="M-15 443h149l71 -213l69 213h106l70 -213l71 213h148l-159 -443h-114l-69 209l-69 -209h-114zM149 644l131 66l137 -175l-96 -51z" />
    <glyph glyph-name="Wacute" unicode="&#x1e82;" horiz-adv-x="877" 
d="M145 667l116 -394l117 394h121l117 -395l116 395h154l-200 -667h-130l-117 395l-118 -395h-129l-201 667h154zM621 854l-172 -161l-96 51l137 175z" />
    <glyph glyph-name="wacute" unicode="&#x1e83;" horiz-adv-x="655" 
d="M-15 443h149l71 -213l69 213h106l70 -213l71 213h148l-159 -443h-114l-69 209l-69 -209h-114zM469 644l-171 -160l-97 51l137 175z" />
    <glyph glyph-name="Wdieresis" unicode="&#x1e84;" horiz-adv-x="877" 
d="M145 667l116 -394l117 394h121l117 -395l116 395h154l-200 -667h-130l-117 395l-118 -395h-129l-201 667h154zM454 800q0 34 26 56q23 20 53 20q35 0 58 -25q21 -22 21 -51q0 -34 -26 -57q-23 -20 -53 -20q-35 0 -58 25q-21 22 -21 52zM266 800q0 34 26 56q22 20 53 20
q35 0 58 -25q20 -22 20 -51q0 -34 -26 -57q-22 -20 -53 -20q-34 0 -58 25q-20 22 -20 52z" />
    <glyph glyph-name="wdieresis" unicode="&#x1e85;" horiz-adv-x="654" 
d="M-15 443h149l71 -213l69 213h106l70 -213l71 213h148l-159 -443h-114l-69 209l-69 -209h-114zM343 596q0 34 26 56q22 20 52 20q35 0 59 -25q20 -22 20 -51q0 -34 -26 -57q-22 -19 -53 -19q-35 0 -58 25q-20 22 -20 51zM154 596q0 34 26 56q23 20 53 20q35 0 58 -25
q20 -22 20 -51q0 -34 -25 -57q-23 -19 -53 -19q-35 0 -58 25q-21 21 -21 51z" />
    <glyph glyph-name="Ygrave" unicode="&#x1ef2;" horiz-adv-x="565" 
d="M208 275l-224 392h166l132 -239l133 239h165l-224 -392v-275h-148v275zM107 854l131 65l136 -175l-96 -51z" />
    <glyph glyph-name="ygrave" unicode="&#x1ef3;" horiz-adv-x="475" 
d="M153 24l-168 419h150l96 -245l110 245h150l-303 -676h-150zM69 644l131 66l136 -175l-96 -51z" />
    <glyph glyph-name="franc" unicode="&#x20a3;" horiz-adv-x="771" 
d="M475 667v-137h-223v-124h165v-137h-165v-269h-148v667h371zM592 387q37 22 77 22q18 0 44 -4v-125q-29 3 -45 3q-47 0 -62 -25q-14 -23 -14 -80v-178h-142v406h142v-19z" />
    <glyph glyph-name="uni20A4" unicode="&#x20a4;" horiz-adv-x="572" 
d="M270 320h179v-102h-163q1 -10 1 -13q0 -33 -18 -71h269v-134h-479v115q8 7 26 21q25 21 44 50q8 14 8 31v1h-78v102h62l-5 24h-57v103h41v2v9q0 111 69 170q64 55 155 55q102 0 165 -71q20 -24 44 -63l-118 -74q-29 44 -48.5 58.5t-47.5 14.5q-72 0 -72 -101h202v-103
h-184z" />
    <glyph glyph-name="peseta" unicode="&#x20a7;" horiz-adv-x="607" 
d="M119 0v402h-51v94h51v171h164q63 0 105 -12.5t74 -40.5q49 -44 66 -118h55v-94h-56q-16 -81 -80 -128q-56 -42 -164 -42h-16v-232h-148zM266 402v-38h26q70 0 87 38h-113zM266 496h113q-11 22 -30 30.5t-57 8.5h-26v-39z" />
    </font>
</defs>
</svg>
